<svg xmlns="http://www.w3.org/2000/svg" viewBox="0 0 480 300" role="img" aria-label="Smart home automation illustration">
  <defs>
    <linearGradient id="m1" x1="0" y1="0" x2="0" y2="1">
      <stop offset="0" stop-color="#EDF6FE"/><stop offset="1" stop-color="#d4e9f9"/>
    </linearGradient>
  </defs>
  <rect width="480" height="300" fill="url(#m1)"/>
  <circle cx="76" cy="60" r="26" fill="#FFCC28"/>
  <g transform="translate(140,70)">
    <path d="M-20,60 L100,-30 L220,60 Z" fill="#0E2A3B"/>
    <rect x="0" y="60" width="200" height="140" rx="8" fill="#fff"/>
    <g transform="translate(30,18) skewX(-32)"><rect width="70" height="30" rx="4" fill="#2a5e80" stroke="#EDF6FE" stroke-width="2"/></g>
    <rect x="26" y="90" width="44" height="44" rx="8" fill="#31C36C" opacity=".25"/>
    <rect x="26" y="90" width="44" height="44" rx="8" fill="none" stroke="#31C36C" stroke-width="2.5"/>
    <path d="M40,112 l6,6 12,-12" stroke="#31C36C" stroke-width="3" fill="none" stroke-linecap="round"/>
    <rect x="130" y="96" width="44" height="104" rx="6" fill="#0E2A3B"/>
    <circle cx="164" cy="150" r="3.5" fill="#FFCC28"/>
    <g transform="translate(84,140)">
      <rect x="0" y="0" width="34" height="60" rx="8" fill="#16394f"/>
      <rect x="4" y="6" width="26" height="42" rx="4" fill="#31C36C"/>
      <path d="M17,14 L11,28 h5 l-4,14 11,-19 h-6 l5,-9 Z" fill="#fff"/>
      <circle cx="17" cy="54" r="2.6" fill="#fff"/>
    </g>
  </g>
  <g stroke="#31C36C" stroke-width="2.5" fill="none" opacity=".85">
    <path d="M360,80 a26,26 0 0 1 36,0"/>
    <path d="M368,92 a15,15 0 0 1 20,0"/>
  </g>
  <circle cx="378" cy="102" r="4" fill="#31C36C"/>
  <path d="M0,262 Q160,238 320,264 T480,258 V300 H0 Z" fill="#31C36C"/>
</svg>
